<?xml version="1.0" standalone="no"?>
<!DOCTYPE svg PUBLIC "-//W3C//DTD SVG 20010904//EN"
 "http://www.w3.org/TR/2001/REC-SVG-20010904/DTD/svg10.dtd">
<svg version="1.0" xmlns="http://www.w3.org/2000/svg"
 width="512.000000pt" height="512.000000pt" viewBox="0 0 512.000000 512.000000"
 preserveAspectRatio="xMidYMid meet">

<g transform="translate(0.000000,512.000000) scale(0.100000,-0.100000)"
fill="#000000" stroke="none">
<path d="M3415 4715 c-16 -7 -77 -16 -135 -20 -143 -9 -182 -23 -257 -95 -35
-33 -66 -59 -70 -58 -5 2 -9 -1 -9 -6 -1 -4 -20 -27 -41 -50 -45 -47 -75 -95
-93 -152 -7 -21 -31 -72 -53 -113 -22 -41 -35 -71 -29 -67 7 4 9 -10 5 -46 -4
-41 1 -71 22 -133 27 -80 63 -155 75 -155 3 0 15 -6 25 -14 17 -12 20 -28 22
-109 1 -53 6 -105 12 -116 6 -11 11 -37 11 -59 0 -23 6 -45 15 -52 8 -7 15
-22 15 -35 0 -12 12 -44 26 -71 14 -27 33 -62 42 -79 8 -16 24 -42 34 -58 17
-23 19 -37 12 -95 -7 -68 -31 -111 -63 -112 -8 0 -23 -8 -34 -17 -10 -10 -38
-26 -60 -35 -23 -9 -41 -21 -40 -27 3 -11 -12 -16 -72 -26 -59 -9 -165 -47
-159 -57 3 -5 9 -6 14 -3 4 3 10 -1 13 -9 4 -9 -3 -16 -16 -20 -31 -8 -34 -8
-52 11 -15 15 -16 14 -13 -13 3 -26 7 -29 35 -28 40 2 50 -20 15 -36 l-27 -12
24 -13 c18 -9 20 -14 10 -18 -11 -4 -10 -6 2 -6 16 -1 34 -27 30 -44 -1 -5 3
-6 9 -2 5 3 10 2 10 -4 0 -6 11 -13 25 -17 14 -3 25 -10 25 -15 0 -5 5 -9 11
-9 5 0 7 5 3 12 -4 6 -3 8 4 4 16 -10 25 13 11 30 -6 8 -9 17 -6 20 7 7 -18
35 -30 33 -22 -4 -44 2 -39 10 3 5 -1 14 -9 21 -20 17 -19 30 3 30 14 0 15 2
2 10 -13 9 -13 10 0 11 61 7 82 6 71 -1 -10 -6 -10 -9 -1 -15 6 -4 9 -14 6
-22 -3 -8 -1 -11 4 -8 9 6 19 0 56 -33 8 -8 27 -17 42 -22 15 -4 26 -13 24
-20 -2 -11 0 -11 12 -1 12 10 15 7 20 -16 6 -24 12 -28 42 -31 22 -1 33 2 29
8 -3 5 -2 10 4 10 5 0 13 -4 16 -10 3 -5 16 -10 28 -11 21 0 21 -1 2 -8 -11
-4 -64 -8 -117 -10 -79 -2 -97 0 -93 11 7 17 -32 61 -46 52 -6 -4 -6 -11 2
-20 6 -8 8 -14 3 -14 -5 0 0 -7 10 -15 18 -13 7 -15 -102 -15 -84 0 -122 -4
-122 -11 0 -17 915 -8 932 9 9 9 -16 12 -113 12 l-126 0 -21 48 c-11 26 -23
65 -26 87 l-5 40 19 -25 c11 -14 20 -28 20 -32 0 -5 5 -8 10 -8 13 0 13 62 -1
97 -17 42 -19 77 -6 85 14 8 59 -1 68 -14 11 -16 179 -25 202 -11 7 4 21 6 33
5 11 -2 26 4 33 12 11 13 7 14 -23 10 -40 -5 -46 12 -11 33 26 16 45 16 41 1
-1 -7 -1 -10 1 -5 3 4 12 7 21 8 11 0 12 2 5 6 -26 10 -12 24 22 21 39 -2 45
-20 15 -41 -21 -15 -17 -29 6 -20 16 6 19 -17 5 -33 -24 -25 -32 -144 -11
-144 20 0 20 -40 0 -72 -23 -38 -25 -48 -7 -48 6 0 29 21 50 46 29 36 35 50
26 60 -6 8 -18 14 -26 14 -10 0 -9 7 6 28 12 15 54 96 96 181 79 163 88 199
63 268 -10 28 -10 39 4 66 10 18 28 66 41 107 29 89 48 132 62 142 6 5 5 8 -4
8 -21 0 -7 76 20 113 17 23 22 42 20 84 -1 37 3 55 12 59 9 3 13 16 10 38 -2
22 2 38 12 46 13 11 13 15 3 22 -9 7 -7 8 8 5 29 -6 58 28 50 59 -5 17 -2 24
9 24 17 0 19 9 6 29 -6 10 -4 25 6 44 11 22 12 35 4 56 -14 36 -16 61 -7 94
11 38 1 72 -26 85 -13 6 -17 11 -10 11 14 1 16 47 2 56 -5 3 -10 14 -10 25 0
19 -25 34 -41 24 -5 -3 -8 -2 -7 3 4 16 -51 90 -89 120 -46 35 -97 57 -117 50
-8 -3 -16 -1 -18 5 -2 6 -13 11 -25 12 -12 0 -31 13 -42 28 -17 21 -33 28 -79
34 -31 4 -61 13 -67 20 -8 10 -122 46 -136 43 -2 0 -17 -7 -34 -14z m115 -25
c0 -5 -5 -10 -11 -10 -5 0 -7 5 -4 10 3 6 8 10 11 10 2 0 4 -4 4 -10z m-300
-19 c0 -4 -21 -16 -47 -25 -27 -10 -70 -27 -96 -38 -27 -10 -51 -17 -53 -15
-13 12 77 62 131 73 33 7 61 12 63 13 1 1 2 -3 2 -8z m230 -1 c0 -5 -2 -10 -4
-10 -3 0 -8 5 -11 10 -3 6 -1 10 4 10 6 0 11 -4 11 -10z m-75 -303 c224 9 281
10 290 3 6 -4 22 -8 37 -8 33 1 86 -36 98 -68 5 -12 10 -44 11 -69 2 -25 6
-48 11 -51 4 -3 8 -16 8 -29 0 -13 11 -54 24 -92 35 -102 65 -203 75 -258 10
-54 -2 -147 -19 -153 -12 -4 -50 -79 -50 -98 0 -7 -7 -19 -15 -28 -9 -8 -16
-19 -15 -23 0 -4 -5 -8 -12 -8 -20 0 -21 -26 0 -32 20 -5 20 -5 -1 -30 -58
-67 -64 -72 -78 -60 -7 7 -4 -1 6 -18 l18 -30 -20 18 c-12 10 -24 33 -27 51
-8 41 -80 96 -156 120 -56 17 -101 39 -70 34 20 -3 60 11 60 21 0 14 -98 23
-119 11 -29 -15 -62 -12 -83 7 -20 18 -58 25 -58 11 0 -4 -5 -8 -11 -8 -6 0
-2 12 8 28 10 15 28 45 38 67 11 22 23 42 28 43 12 6 8 66 -9 118 -9 27 -32
65 -51 85 -31 33 -41 37 -104 43 -38 4 -71 11 -74 17 -4 5 -18 3 -35 -6 -47
-24 -56 -19 -75 43 -25 78 -22 128 17 264 10 35 52 76 93 90 11 4 65 4 120 0
55 -4 118 -6 140 -5z m-193 -460 c7 -8 19 -16 26 -18 6 -2 -22 -4 -63 -4 -41
0 -75 3 -75 6 0 7 57 26 82 28 9 1 23 -5 30 -12z m81 -69 c32 -23 37 -8 5 16
l-23 17 25 -7 c40 -10 54 -28 41 -53 -9 -16 -9 -21 0 -21 13 0 3 -51 -13 -61
-5 -3 -9 -8 -8 -10 2 -6 -13 -43 -20 -49 -3 -3 -11 -27 -17 -54 -10 -43 -9
-51 8 -69 19 -21 17 -39 -4 -31 -7 2 -27 -9 -44 -25 -18 -16 -46 -39 -62 -51
-21 -14 -31 -30 -31 -47 l0 -26 -19 22 c-10 12 -22 37 -25 55 -4 19 -13 36
-20 39 -8 3 -12 17 -11 31 2 16 -2 26 -9 26 -8 0 -12 9 -9 23 2 12 -4 31 -14
42 -19 22 -25 40 -24 65 1 8 3 31 4 52 2 33 6 37 40 48 20 6 42 8 47 5 5 -3
11 -1 15 5 3 5 16 11 28 11 17 1 18 2 5 6 -19 5 -25 48 -8 58 6 3 10 -2 10
-12 0 -24 19 -43 41 -43 27 0 51 29 43 52 -7 22 -2 21 49 -14z m160 -333 c-6
-17 -25 -15 -31 3 -2 7 5 12 17 12 14 0 19 -5 14 -15z m-3 -106 c0 -5 5 -7 10
-4 6 3 16 3 22 -2 19 -11 -51 -23 -76 -13 -20 8 -20 8 4 18 33 14 40 14 40 1z
m240 -60 c17 -11 35 -29 39 -42 7 -18 2 -28 -26 -54 -20 -18 -37 -33 -39 -33
-9 0 -54 -49 -54 -59 0 -7 -4 -10 -9 -7 -4 3 -23 -5 -40 -19 -29 -20 -42 -23
-102 -21 -38 2 -75 9 -84 16 -8 7 -42 25 -76 42 -43 21 -59 34 -55 44 3 9 1
12 -4 9 -6 -3 -10 3 -10 15 0 11 -7 23 -15 26 -19 8 -20 58 -1 73 7 6 29 11
47 10 35 -2 78 6 87 16 3 3 74 5 158 4 130 -1 157 -4 184 -20z m-535 -454 c68
-130 69 -132 38 -132 -54 0 -69 -60 -27 -104 l25 -27 -42 0 c-29 -1 -38 2 -29
8 8 5 18 6 22 4 14 -9 9 17 -7 32 -11 11 -12 21 -4 41 10 27 3 84 -12 93 -8 6
-15 45 -24 144 -5 60 1 55 60 -59z m-260 -65 c-3 -5 2 -10 12 -11 10 0 13 -3
6 -6 -10 -3 -9 -9 3 -20 13 -14 17 -14 25 -2 5 9 9 10 9 2 0 -6 10 -13 23 -16
21 -3 21 -4 2 -12 -11 -5 -24 -13 -28 -19 -5 -6 -5 0 -2 13 5 16 4 21 -4 17
-6 -4 -11 -13 -11 -21 0 -8 -5 -17 -11 -21 -7 -4 -10 4 -7 22 2 25 0 29 -19
28 -25 -1 -31 24 -11 44 15 15 21 16 13 2z m200 -49 c3 -5 1 -12 -5 -16 -5 -3
-10 1 -10 9 0 18 6 21 15 7z m-93 -71 c4 0 8 -9 8 -21 0 -16 -4 -19 -20 -14
-15 5 -18 3 -14 -9 3 -9 2 -16 -4 -16 -18 0 -21 40 -4 50 15 8 15 10 -3 10
l-20 1 20 9 c11 5 14 9 7 9 -8 1 -10 6 -6 13 5 8 11 5 17 -10 6 -12 14 -22 19
-22z"/>
<path d="M3543 3963 c-13 -2 -23 -8 -23 -13 0 -5 -7 -16 -17 -25 -9 -9 -17
-29 -18 -45 -2 -26 -1 -28 22 -19 35 13 50 12 35 -3 -26 -26 -10 -29 22 -4 39
29 48 32 40 12 -7 -17 22 -46 45 -46 21 0 37 16 43 45 4 18 7 16 24 -12 19
-32 47 -43 59 -23 4 6 13 9 22 8 8 -2 26 11 40 29 l24 32 -20 20 c-22 22 -51
28 -51 11 0 -5 5 -10 10 -10 6 0 9 -6 8 -12 -2 -7 3 -12 10 -10 6 1 12 -5 12
-12 0 -12 -10 -12 -57 5 -31 10 -84 19 -117 19 -60 1 -61 1 -33 16 20 11 46
14 90 10 44 -3 68 0 81 10 18 13 18 14 2 20 -11 4 -22 1 -27 -7 -6 -10 -9 -10
-9 -1 0 6 -7 12 -15 12 -8 0 -15 -4 -15 -9 0 -6 -12 -6 -32 0 -33 9 -113 10
-155 2z"/>
<path d="M3318 3613 c7 -3 16 -2 19 1 4 3 -2 6 -13 5 -11 0 -14 -3 -6 -6z"/>
<path d="M3412 3279 c-22 -8 -22 -10 -7 -25 18 -18 45 -12 45 10 0 21 -11 25
-38 15z"/>
<path d="M1496 4675 c-25 -9 -71 -45 -124 -97 -172 -169 -260 -306 -305 -474
-45 -165 -86 -368 -92 -454 -12 -175 -51 -467 -74 -546 -4 -16 -6 -45 -3 -64
5 -33 6 -34 13 -10 5 18 7 9 8 -32 1 -31 -3 -60 -9 -63 -5 -3 -10 -1 -10 6 0
7 -3 9 -6 6 -4 -4 -2 -12 4 -20 8 -10 8 -20 -1 -38 -7 -13 -16 -33 -21 -44
-12 -32 10 -5 36 44 13 25 30 46 38 49 10 2 11 1 4 -5 -6 -4 -14 -20 -17 -34
-9 -34 -48 -72 -76 -74 -18 -1 -21 2 -17 19 5 21 5 21 -10 1 -13 -18 -13 -21
3 -34 13 -9 14 -15 6 -18 -18 -7 -16 -23 2 -23 9 0 18 -6 21 -14 3 -9 12 -12
21 -9 10 4 14 2 10 -4 -4 -6 -19 -13 -35 -16 -23 -5 -28 -11 -30 -40 -3 -40
25 -77 59 -77 22 0 22 0 3 15 -18 13 -17 14 19 15 26 0 37 4 37 15 0 8 5 15
10 15 6 0 10 7 10 15 0 8 6 16 13 17 6 0 17 2 22 2 6 1 25 12 42 24 17 12 35
21 40 20 4 -1 19 4 33 11 13 8 45 15 70 17 41 2 48 -1 66 -27 10 -16 26 -28
34 -26 8 2 28 -3 44 -11 16 -8 46 -14 66 -14 29 1 37 -3 37 -16 0 -36 4 -42
23 -42 12 0 20 -7 21 -17 1 -12 4 -9 8 7 4 14 3 28 -2 31 -5 3 -9 10 -10 15
-1 5 -8 8 -16 6 -9 -2 -12 2 -8 13 5 11 -1 19 -18 25 -27 10 -32 24 -14 36 8
4 7 9 -2 15 -12 7 -12 9 0 9 8 0 11 7 8 20 -3 11 -1 20 4 20 4 0 6 7 3 15 -4
8 -1 22 6 30 7 8 9 15 4 15 -5 0 0 6 11 14 18 12 61 19 50 8 -6 -7 27 -31 43
-32 7 0 10 5 7 10 -4 6 -11 8 -16 5 -5 -4 -9 -1 -9 5 0 6 8 9 18 6 50 -15 72
-17 72 -8 0 5 7 13 16 16 9 4 13 2 8 -5 -4 -7 0 -9 12 -5 46 13 84 19 156 20
71 2 76 1 67 -15 -16 -30 -10 -43 10 -21 10 12 23 22 29 22 6 0 17 9 24 19 15
21 30 16 37 -9 2 -8 6 -26 10 -40 4 -14 6 -36 4 -50 -11 -108 -12 -134 -2
-147 9 -10 7 -13 -7 -14 -13 0 -15 -2 -5 -6 8 -3 20 2 27 11 7 10 21 17 31 16
36 -4 53 0 53 14 0 17 43 33 47 19 3 -7 29 -9 68 -6 53 5 69 2 98 -16 19 -11
38 -17 42 -13 5 4 5 -1 1 -12 -5 -15 -2 -17 13 -13 27 7 43 -6 44 -37 3 -38
24 -32 47 14 11 22 27 40 35 40 16 0 37 33 33 53 -1 6 6 26 15 44 23 44 5 51
-33 12 -16 -18 -30 -30 -31 -28 0 2 -2 13 -4 24 -2 11 -8 45 -13 75 -28 148
-21 469 11 508 18 23 1 247 -27 342 -13 47 -33 131 -45 186 -11 56 -29 126
-40 155 -11 30 -29 90 -41 134 -55 203 -108 309 -200 405 -49 51 -62 59 -116
70 -69 14 -143 10 -191 -11 -28 -11 -39 -11 -82 5 -36 13 -186 50 -186 46 0
-1 -18 -7 -39 -15z m206 -390 c52 6 62 4 111 -24 35 -20 74 -33 113 -37 77 -8
115 -27 152 -74 34 -41 73 -143 68 -175 -2 -11 2 -23 8 -27 6 -4 -3 -10 -21
-14 -23 -5 -33 -12 -33 -25 0 -26 -5 -24 -60 16 l-48 35 -83 -11 c-89 -12
-122 -29 -117 -63 1 -12 -4 -31 -11 -44 -22 -40 -21 -58 2 -57 12 0 23 -4 24
-9 3 -17 86 -45 134 -45 25 -1 50 -6 55 -11 7 -7 23 -4 51 12 39 22 43 27 43
48 0 6 8 5 19 -2 11 -7 17 -17 15 -23 -3 -5 1 -2 9 8 20 24 23 15 21 -68 -3
-89 -5 -105 -17 -105 -5 0 -7 -6 -4 -14 3 -8 -1 -17 -10 -20 -9 -4 -13 -9 -9
-13 3 -3 -2 -15 -11 -26 -12 -13 -13 -17 -4 -12 8 5 4 -7 -9 -25 -13 -18 -18
-30 -10 -25 10 6 11 4 4 -6 -12 -19 -13 -72 -2 -80 10 -7 13 -82 5 -114 -3
-11 -6 -24 -6 -28 -1 -5 -5 -5 -11 -2 -5 3 -10 1 -10 -5 0 -6 -11 -22 -24 -36
-21 -23 -24 -24 -30 -8 -3 9 -4 19 -1 22 3 3 5 0 5 -6 0 -7 4 -12 9 -12 13 0
0 48 -15 54 -8 3 -22 -14 -39 -48 -31 -63 -102 -136 -136 -140 -14 -1 -30 -5
-35 -9 -6 -3 -22 -4 -35 -1 -13 3 -51 6 -84 8 -77 3 -93 12 -132 80 -32 56
-32 57 -13 76 13 13 15 20 8 21 -10 0 -10 2 0 6 6 2 10 9 6 14 -7 12 -1 11 33
-2 15 -6 60 -11 98 -11 69 -1 112 13 205 67 14 7 33 16 42 19 10 3 15 11 12
20 -4 10 -22 14 -57 14 -29 1 -93 4 -144 7 -57 4 -110 3 -140 -4 -26 -7 -54
-13 -61 -14 -7 -2 -22 -11 -33 -20 -17 -15 -18 -20 -5 -40 19 -31 29 -77 16
-77 -6 0 -9 4 -5 9 3 5 1 12 -4 15 -10 7 -8 -28 4 -56 4 -10 3 -18 -3 -18 -10
0 -24 25 -26 45 -1 5 -17 18 -36 27 -19 9 -29 17 -22 18 18 0 15 20 -4 20 -11
0 -14 6 -9 21 5 13 3 19 -3 15 -5 -3 -13 1 -16 10 -9 23 -7 36 3 29 11 -6 -17
84 -31 102 -5 7 -7 16 -4 21 3 5 -2 18 -12 28 -47 53 -75 162 -61 232 11 52
20 55 71 27 26 -14 49 -22 52 -17 3 5 27 8 53 6 27 -2 42 -1 35 2 -10 5 -8 10
7 21 12 8 21 21 21 29 0 8 3 14 8 14 14 -1 42 -27 35 -33 -3 -4 4 -7 16 -7 19
0 23 -4 19 -25 -3 -14 -2 -25 2 -25 5 0 7 -15 5 -32 -1 -18 2 -38 7 -44 5 -7
2 -16 -7 -24 -8 -7 -15 -21 -15 -31 0 -10 -4 -20 -9 -23 -5 -3 -11 -18 -14
-33 -4 -21 2 -34 27 -59 29 -29 37 -31 100 -33 70 -1 71 -1 145 55 8 7 -34
104 -46 104 -20 0 -15 -34 6 -50 25 -17 18 -30 -18 -30 -15 0 -36 -9 -46 -20
-23 -26 -39 -25 -65 2 -21 23 -26 75 -11 113 5 11 4 28 -1 38 -5 9 -5 17 0 17
5 0 9 7 9 15 0 8 -3 15 -6 15 -4 0 -8 24 -9 53 -3 84 -30 146 -73 168 -43 21
-183 28 -217 10 -25 -14 -35 -14 -27 -1 3 5 0 22 -8 37 -21 41 -19 119 5 196
17 56 28 73 57 93 20 13 45 24 57 24 11 0 24 3 28 7 20 20 92 28 131 15 26 -9
59 -11 97 -7z m196 -32 c2 -8 -5 -13 -17 -13 -21 0 -35 13 -24 24 10 10 36 3
41 -11z m232 -337 c0 -3 -4 -8 -10 -11 -5 -3 -10 -1 -10 4 0 6 5 11 10 11 6 0
10 -2 10 -4z m-100 -36 c48 -24 53 -32 36 -55 -11 -15 -16 -16 -37 -4 -38 20
-147 39 -152 25 -3 -8 -8 -7 -18 2 -11 10 -10 12 3 12 9 0 23 6 30 14 30 30
87 32 138 6z m-530 -15 c20 -8 27 -14 17 -14 -10 -1 -16 -4 -14 -8 3 -5 -24
-8 -59 -8 -66 0 -90 15 -56 34 23 14 70 12 112 -4z m410 -35 c-8 -5 -19 -10
-25 -10 -5 0 -3 5 5 10 8 5 20 10 25 10 6 0 3 -5 -5 -10z m-470 -42 c0 -6 7
-20 17 -30 15 -17 15 -18 -14 -7 -24 8 -30 15 -26 30 6 21 23 26 23 7z m451
-19 c10 -19 9 -20 -13 -14 -32 10 -35 15 -18 25 19 12 18 13 31 -11z m99 7 c0
-8 -7 -16 -15 -20 -17 -6 -18 -4 -9 18 8 20 24 21 24 2z m314 -183 c-1 -30 -9
-61 -20 -78 -20 -30 -32 -19 -15 14 6 11 11 43 11 71 0 37 4 50 13 47 7 -2 12
-22 11 -54z m49 -28 c-3 -9 -8 -14 -10 -11 -3 3 -2 9 2 15 9 16 15 13 8 -4z
m-25 -50 c-6 -14 -13 -23 -15 -21 -5 5 15 46 22 46 3 0 -1 -11 -7 -25z m-1100
-67 c12 -46 9 -58 -15 -58 -10 0 -14 6 -10 20 3 11 2 20 -2 20 -4 0 -6 14 -3
30 6 42 18 37 30 -12z m1000 -54 c-11 -11 -23 -14 -35 -9 -16 7 -15 9 7 15 40
12 45 11 28 -6z m-1257 -405 c-10 -23 -10 -23 -10 7 -1 17 2 34 7 38 11 12 14
-18 3 -45z m-4 -116 c-11 -40 -34 -73 -50 -73 -5 0 -7 6 -4 14 8 20 56 96 61
96 2 0 -1 -17 -7 -37z"/>
<path d="M2552 3555 c0 -16 2 -22 5 -12 2 9 2 23 0 30 -3 6 -5 -1 -5 -18z"/>
<path d="M2552 3495 c0 -16 2 -22 5 -12 2 9 2 23 0 30 -3 6 -5 -1 -5 -18z"/>
<path d="M2552 3435 c0 -16 2 -22 5 -12 2 9 2 23 0 30 -3 6 -5 -1 -5 -18z"/>
<path d="M2551 3384 c0 -11 3 -14 6 -6 3 7 2 16 -1 19 -3 4 -6 -2 -5 -13z"/>
<path d="M3930 3020 c0 -14 5 -32 10 -40 8 -12 10 -10 10 10 0 14 -5 32 -10
40 -8 12 -10 10 -10 -10z"/>
<path d="M901 2974 c0 -11 3 -14 6 -6 3 7 2 16 -1 19 -3 4 -6 -2 -5 -13z"/>
<path d="M3636 2955 c4 -8 8 -15 10 -15 2 0 4 7 4 15 0 8 -4 15 -10 15 -5 0
-7 -7 -4 -15z"/>
<path d="M3839 2896 c-5 -6 -5 -36 0 -36 9 0 31 22 31 30 0 5 -27 10 -31 6z"/>
<path d="M3826 2835 c4 -9 0 -15 -9 -15 -17 0 -35 -80 -22 -100 3 -6 1 -9 -5
-8 -7 2 -14 -5 -15 -14 -2 -11 2 -15 11 -11 16 6 28 39 19 53 -3 5 -1 18 5 27
11 17 11 17 6 0 -3 -10 -2 -15 4 -12 8 5 30 68 30 88 0 4 -7 7 -15 7 -9 0 -12
-6 -9 -15z"/>
<path d="M2705 2780 c-3 -5 1 -10 10 -10 9 0 13 5 10 10 -3 6 -8 10 -10 10 -2
0 -7 -4 -10 -10z"/>
<path d="M2565 2770 c4 -6 11 -8 16 -5 14 9 11 15 -7 15 -8 0 -12 -5 -9 -10z"/>
<path d="M1420 2740 c0 -5 4 -10 9 -10 6 0 13 5 16 10 3 6 -1 10 -9 10 -9 0
-16 -4 -16 -10z"/>
<path d="M2532 2707 c-2 -31 -26 -103 -36 -109 -6 -4 5 -8 24 -8 26 0 31 3 20
10 -8 5 -10 10 -3 10 15 0 22 98 7 104 -6 2 -11 -1 -12 -7z"/>
<path d="M2561 2678 c1 -7 4 -23 7 -34 6 -19 9 -20 20 -8 7 8 8 14 2 14 -5 0
-10 9 -10 20 0 11 -4 20 -10 20 -5 0 -10 -6 -9 -12z"/>
<path d="M1908 2593 c6 -2 18 -2 25 0 6 3 1 5 -13 5 -14 0 -19 -2 -12 -5z"/>
<path d="M2390 2421 c-14 -5 -52 -26 -85 -47 -33 -21 -73 -45 -88 -51 -16 -7
-26 -17 -23 -21 3 -5 -17 -28 -44 -51 -87 -73 -154 -219 -184 -402 -4 -21 -13
-42 -21 -49 -17 -14 -21 -35 -5 -25 6 3 10 -1 10 -9 0 -9 -4 -16 -8 -16 -4 0
-5 -30 -1 -67 11 -106 -7 -182 -42 -183 -4 0 -18 10 -33 21 -15 12 -30 18 -33
15 -10 -9 52 -63 66 -58 15 5 71 -17 71 -28 0 -4 -10 -10 -21 -13 -20 -5 -21
-11 -16 -59 3 -30 16 -78 30 -108 14 -30 28 -62 32 -70 9 -23 46 -81 85 -134
27 -37 40 -46 60 -44 21 3 27 -3 38 -37 10 -30 11 -48 3 -71 -6 -17 -11 -37
-11 -44 0 -18 -77 -90 -97 -90 -9 0 -22 8 -29 17 -12 17 -13 16 -22 -7 -20
-51 -62 -78 -135 -85 -58 -6 -72 -12 -108 -44 l-40 -36 0 -168 c-1 -93 1 -170
3 -173 8 -7 281 -14 768 -18 273 -3 504 -8 514 -12 11 -4 17 -3 14 2 -4 5 91
9 235 9 l242 0 3 85 c1 47 -2 148 -8 225 -5 77 -12 176 -15 220 -3 44 -9 83
-13 87 -5 5 -25 -7 -45 -27 -34 -34 -39 -35 -109 -35 -40 0 -89 -3 -109 -6
-35 -6 -36 -7 -26 -34 29 -77 -93 -182 -263 -226 -93 -24 -118 -14 -40 15 115
43 170 91 170 147 0 15 -4 14 -25 -6 -14 -13 -25 -18 -25 -11 0 7 -6 9 -12 5
-7 -3 7 11 31 33 41 36 45 44 47 89 0 28 7 67 14 89 10 29 10 40 1 43 -6 2 -8
9 -5 14 4 6 3 8 -3 5 -6 -4 -19 0 -29 8 -10 8 -21 15 -24 15 -9 0 -60 -47 -60
-57 0 -5 -16 -10 -35 -11 -20 -2 -35 2 -35 8 0 6 -4 8 -10 5 -5 -3 -19 5 -31
19 -24 28 -95 60 -110 50 -6 -3 -18 1 -28 10 -27 25 -159 15 -240 -18 -50 -20
-68 -23 -83 -15 -16 8 -19 8 -13 -1 6 -9 3 -9 -13 -1 -27 14 -78 61 -67 61 5
0 1 6 -10 13 -10 8 -15 19 -11 25 3 6 2 13 -4 17 -6 4 -8 11 -4 16 3 5 -2 21
-11 35 -9 14 -18 47 -19 74 -2 26 -7 53 -11 60 -15 25 -16 73 0 105 15 34 16
34 68 29 102 -11 124 -8 152 22 24 26 25 26 25 5 0 -12 6 -21 15 -21 8 0 15 5
15 11 0 8 6 7 17 -2 31 -27 43 -3 30 64 -8 38 -22 65 -53 101 -46 53 -54 56
-173 59 l-54 2 -3 50 c-3 47 -1 51 31 74 19 13 69 33 112 46 98 29 189 72 239
113 46 38 104 58 116 39 5 -6 7 -31 5 -54 -3 -32 -1 -43 9 -43 8 0 14 6 14 13
0 6 5 4 11 -7 8 -13 13 -15 19 -6 5 8 14 1 28 -22 35 -57 57 -76 106 -98 55
-23 56 -23 56 -10 0 5 -17 14 -38 19 -38 11 -80 47 -101 88 -14 28 -14 33 4
33 8 0 31 -22 51 -50 41 -57 52 -64 29 -19 -16 30 -16 30 5 19 30 -16 37 -4
13 23 -11 12 -28 38 -38 57 -16 33 -15 33 38 -19 31 -30 61 -68 67 -85 7 -17
16 -39 21 -48 12 -24 11 -36 -2 -18 -9 14 -8 -13 5 -97 1 -7 14 -22 29 -33 15
-12 27 -28 27 -36 0 -8 4 -13 9 -10 31 20 69 -187 51 -283 -6 -36 -5 -46 11
-59 11 -9 19 -24 19 -34 0 -29 16 -21 34 16 20 42 20 53 0 73 -14 15 -14 17 1
26 13 7 20 5 27 -7 8 -14 12 -15 25 -4 13 10 53 89 53 104 0 12 -48 1 -70 -16
-14 -11 -31 -20 -37 -20 -21 0 -15 27 11 47 13 10 27 30 31 43 4 14 14 37 21
52 8 15 15 31 15 35 0 5 4 13 8 18 5 6 11 24 15 40 l6 30 -15 -27 c-16 -29
-34 -37 -36 -15 -1 6 -3 24 -5 39 -4 35 11 44 41 24 13 -9 28 -16 32 -16 4 0
2 4 -5 9 -11 6 -1 20 37 56 28 26 51 53 51 59 -1 6 -8 2 -18 -9 -29 -35 -65
-55 -99 -55 -37 0 -39 4 -48 105 -3 39 -9 85 -12 104 -4 24 -2 32 6 27 17 -11
13 20 -4 34 -9 7 -13 15 -10 18 3 3 -7 18 -22 34 -33 35 -21 36 24 2 33 -25
48 -19 17 7 -9 7 -43 47 -77 87 -34 42 -84 90 -116 110 -31 20 -77 55 -102 79
-48 45 -108 71 -119 53 -7 -12 -208 11 -352 40 -105 22 -102 22 -138 11z
m-133 -763 c-3 -8 -6 -5 -6 6 -1 11 2 17 5 13 3 -3 4 -12 1 -19z m143 -68 c14
-4 21 -9 15 -9 -5 -1 -3 -6 5 -12 14 -10 -2 -9 -107 3 -14 1 -17 11 -6 21 8 9
61 7 93 -3z m287 -657 c-20 -2 -52 -2 -70 0 -17 2 0 4 38 4 39 0 53 -2 32 -4z
m128 -52 c-3 -2 2 -12 11 -22 10 -11 12 -19 5 -24 -6 -3 -11 -14 -11 -24 0
-38 -98 -95 -165 -96 -42 0 -120 35 -142 63 -7 10 -13 27 -13 38 0 29 28 35
159 39 81 2 106 6 113 18 4 9 17 15 28 14 10 -1 17 -3 15 -6z"/>
<path d="M2777 1673 c-3 -5 -4 -19 -2 -33 1 -20 6 -24 26 -22 117 14 179 14
179 0 0 -8 9 -24 21 -37 27 -29 17 -38 -24 -23 -37 13 -128 15 -200 3 -56 -9
-55 -8 -63 -52 -4 -25 -3 -30 5 -19 8 12 12 9 17 -17 4 -21 11 -30 20 -26 8 3
14 11 14 19 0 22 16 16 28 -11 10 -21 18 -25 56 -25 25 0 48 5 51 10 4 6 10 8
14 6 14 -9 134 13 142 26 11 17 5 77 -9 103 -6 11 -29 31 -51 45 -23 14 -41
28 -41 32 0 20 -172 40 -183 21z"/>
<path d="M2520 1304 c-18 -47 -23 -103 -10 -119 10 -12 32 -13 123 -8 62 3
116 9 120 13 5 5 6 16 3 27 -5 14 -16 18 -51 18 -25 0 -45 3 -45 7 0 4 -8 6
-17 6 -38 -2 -73 21 -79 52 -8 37 -31 39 -44 4z"/>
<path d="M3242 1149 c-13 -5 -20 -14 -17 -20 5 -7 13 -4 26 7 10 9 19 19 19
21 0 4 0 4 -28 -8z"/>
<path d="M3185 1120 c3 -5 8 -10 11 -10 2 0 4 5 4 10 0 6 -5 10 -11 10 -5 0
-7 -4 -4 -10z"/>
<path d="M3150 1051 c0 -5 7 -12 16 -15 22 -9 24 -8 18 9 -7 16 -34 21 -34 6z"/>
</g>
</svg>
